<svg height="512" viewBox="0 0 58 58" width="512" xmlns="http://www.w3.org/2000/svg"><g id="Page-1" fill="none" fill-rule="evenodd"><g id="021---Target-Bugs" fill-rule="nonzero"><path id="Shape" d="m31 2.08h-4c-13.3277897.99778903-23.92221097 11.5922103-24.92 24.92v4c.99778903 13.3277897 11.5922103 23.922211 24.92 24.92h4c13.3277897-.997789 23.922211-11.5922103 24.92-24.92v-4c-.997789-13.3277897-11.5922103-23.92221097-24.92-24.92zm20.91 28.92c-.9849334 11.1147877-9.7952123 19.9250666-20.91 20.91h-4c-11.1147877-.9849334-19.9250666-9.7952123-20.91-20.91v-4c.9849334-11.1147877 9.7952123-19.9250666 20.91-20.91h4c11.1147877.9849334 19.9250666 9.7952123 20.91 20.91z" fill="#c03a2b"/><path id="Shape" d="m29 8c-1.1045695 0-2-.8954305-2-2v-4c0-1.1045695.8954305-2 2-2s2 .8954305 2 2v4c0 1.1045695-.8954305 2-2 2z" fill="#e64c3c"/><path id="Shape" d="m8 29c0 1.1045695-.8954305 2-2 2h-4c-1.1045695 0-2-.8954305-2-2s.8954305-2 2-2h4c1.1045695 0 2 .8954305 2 2z" fill="#e64c3c"/><path id="Shape" d="m29 50c1.1045695 0 2 .8954305 2 2v4c0 1.1045695-.8954305 2-2 2s-2-.8954305-2-2v-4c0-1.1045695.8954305-2 2-2z" fill="#e64c3c"/><path id="Shape" d="m50 29c0-1.1045695.8954305-2 2-2h4c1.1045695 0 2 .8954305 2 2s-.8954305 2-2 2h-4c-1.1045695 0-2-.8954305-2-2z" fill="#e64c3c"/><g fill="#d25627"><path id="Shape" d="m17 43c-.3214436.0000774-.6233283-.1543712-.8113424-.4150947-.1880141-.2607234-.2392338-.5959327-.1376576-.9009053l2-6c.0932042-.2796919.3050755-.5040047.579-.613l6.209-2.471c.3338784-.1429448.7190117-.0936272 1.0060986.1288343s.4309884.5830891.3759194.9420813-.3004499.6599044-.641018.7860844l-5.778 2.3-1.853 5.559c-.1360719.4085428-.5183926.6841037-.949.684z"/><path id="Shape" d="m13 34c-.4684292.0057459-.8780642-.3144677-.985575-.7704286-.1075108-.455961.1159217-.9254452.537575-1.1295714l3.855-1.927 2.885-2.885c.1885542-.1859624.4431749-.2895369.708-.288h6c.5522847 0 1 .4477153 1 1s-.4477153 1-1 1h-5.586l-2.707 2.707c-.0762928.0758885-.1640278.1393277-.26.188l-4 2c-.1388389.0691972-.2918727.1051447-.447.105z"/><path id="Shape" d="m25.078 23.615c-.3346327.0003846-.6472789-.1666353-.833-.445l-2.78-4.17h-2.465c-.2651948-.0000566-.5195073-.1054506-.707-.293l-2-2c-.3789722-.3923789-.3735524-1.0160848.0121814-1.4018186s1.0094397-.3911536 1.4018186-.0121814l1.707 1.707h2.586c.3342785-.00005.6464754.1669303.832.445l3.077 4.616c.2040789.3066761.2230279.7007175.0493181 1.025561-.1737098.3248436-.5119458.5278806-.8803181.528439z"/><path id="Shape" d="m41 43c-.4306074.0001037-.8129281-.2754572-.949-.684l-1.851-5.559-5.778-2.3c-.4988108-.2135581-.7363038-.7859412-.5352069-1.2899048.201097-.5039637.7674017-.7556068 1.2762069-.5670952l6.209 2.474c.2739245.1089953.4857958.3333081.579.613l2 6c.1004932.3049313.0484626.6395706-.1398714.8995943s-.490065.4138061-.8111286.4134057z"/><path id="Shape" d="m45 34c-.1543931.001545-.307047-.0326823-.446-.1l-4-2c-.0959722-.0486723-.1837072-.1121115-.26-.188l-2.708-2.712h-5.586c-.5522847 0-1-.4477153-1-1s.4477153-1 1-1h6c.2651948.0000566.5195073.1054506.707.293l2.885 2.885 3.855 1.922c.4214702.2040519.6449027.6732513.5376645 1.129074-.1072383.4558226-.5164267.7761896-.9846645.770926z"/><path id="Shape" d="m33.23 23.154c-.3681928-.0009258-.7060924-.2041055-.8795554-.5288784s-.1544252-.7185947.0495554-1.0251216l2.769-4.154c.1850988-.2781558.4968862-.445493.831-.446h2.586l1.707-1.707c.3923789-.3789722 1.0160848-.3735524 1.4018186.0121814s.3911536 1.0094397.0121814 1.4018186l-2 2c-.1874927.1875494-.4418052.2929434-.707.293h-2.465l-2.472 3.708c-.1854917.2787454-.4981775.4461618-.833.446z"/><path id="Shape" d="m29 16c-.545331.0000884-.990184-.4367573-1-.982-.008-.295-.219-3-5-3-.5522847 0-1-.4477153-1-1s.4477153-1 1-1c3.34 0 5.087 1.153 6 2.352.913-1.2 2.66-2.352 6-2.352.5522847 0 1 .4477153 1 1s-.4477153 1-1 1c-4.772 0-4.991 2.694-5 3.011-.0156934.5409274-.4588451.9712276-1 .971z"/></g><path id="Shape" d="m32 18c0-2-1-4-3-4s-3 2-3 4z" fill="#f29c1f"/><path id="Shape" d="m29 24h4c.6952889-.8405796 1.0518834-1.9103629 1-3-.1013664-1.2791476-.8582354-2.4144512-2-3h-6c-1.1417646.5855488-1.8986336 1.7208524-2 3-.0518834 1.0896371.3047111 2.1594204 1 3z" fill="#f0c419"/><path id="Shape" d="m33 24c1.3539044 3.8546796 2.030554 7.9145773 2 12 0 7-4 10-6 10s-6-3-6-10c-.030554-4.0854227.6460956-8.1453204 2-12z" fill="#f29c1f"/></g></g></svg>