<svg height="511pt" viewBox="0 -61 511.99983 511" width="511pt" xmlns="http://www.w3.org/2000/svg"><path d="m335.605469 382.230469c-26.464844 0-59.441407-8.925781-74.199219-56.019531-8.898438-28.402344-7.414062-67.066407-7.382812-101.988282.035156-32.671875.066406-66.453125-7.410157-89.566406-6.804687-21.023438-17.882812-29.210938-39.523437-29.210938-15.042969 0-30.199219 4.003907-39.179688 33.054688-7.929687 25.65625-8.480468 61.746094-9.015625 96.644531-.511719 33.371094-.996093 64.890625-7.515625 90.210938-11.382812 44.199219-38.679687 53.890625-59.574218 54.234375-15.375.277344-29.652344-5.679688-41.320313-17.167969-18.601563-18.3125-31.457031-51.851563-38.203125-99.683594-4.734375-33.566406-4.789062-62.207031-4.789062-63.410156 0-11.75 9.515624-21.273437 21.253906-21.273437 11.734375 0 21.246094 9.519531 21.25 21.261718 0 .269532.074218 27.289063 4.441406 57.972656 7.113281 49.953126 19.253906 68.3125 25.859375 74.808594 4.519531 4.445313 7.984375 4.988282 10.800781 4.949219 5.347656-.085937 13.433594-.222656 19.121094-22.3125 5.253906-20.417969 5.703125-49.476563 6.171875-80.242187.582031-37.898438 1.183594-77.085938 10.914063-108.570313 16.101562-52.089844 52.273437-63.027344 79.785156-63.027344 39.894531 0 67.542968 20.28125 79.957031 58.648438 9.554687 29.523437 9.515625 66.734375 9.480469 102.71875-.03125 31.707031-.0625 64.492187 6.882812 86.660156 6.128906 19.550781 18.773438 29.660156 35.3125 27.164063 39.648438-5.980469 30.203125-72.390626 26.046875-116.101563-3.835937-40.375-7.804687-82.121094-1.5-118.476563 8-46.121093 31.933594-75.511718 71.128907-87.347656 16.085937-4.855468 32.277343-7.597656 48.121093-8.148437 11.726563-.417969 21.566407 8.78125 21.972657 20.523437.40625 11.742188-8.773438 21.589844-20.503907 21.996094-12.179687.425781-24.734375 2.566406-37.3125 6.363281-23.484375 7.09375-36.292969 23.714844-41.527343 53.894531-5.332032 30.730469-1.636719 69.585938 1.933593 107.167969 5.472657 57.585938 7.523438 113.574219-19.804687 143.65625-12.421875 13.679688-29.808594 20.617188-51.671875 20.617188zm-285.609375-182.902344h.011718zm0 0" fill="#ffa799"/><g fill="#ff9084"><path d="m263.21875 122.824219c9.660156 29.855469 9.621094 67.480469 9.585938 103.871093-.03125 32.0625-.0625 65.21875 6.960937 87.632813 6.195313 19.769531 18.980469 29.996094 35.707031 27.472656 4.449219-.671875 8.285156-2.101562 11.585938-4.160156-10.804688-2.71875-19.054688-12.066406-23.648438-26.71875-6.941406-22.164063-6.914062-54.949219-6.882812-86.65625.035156-35.984375.074218-73.195313-9.480469-102.71875-12.414063-38.367187-40.0625-58.648437-79.957031-58.648437-4.652344 0-9.550782.3125-14.558594 1.085937 34.882812 3.222656 59.214844 23.390625 70.6875 58.839844zm0 0"/><path d="m23.503906 201.46875c0 .273438.074219 27.59375 4.488282 58.621094 7.191406 50.515625 19.472656 69.078125 26.148437 75.648437 4.574219 4.5 8.074219 5.050781 10.925781 5.011719 4.019532-.066406 9.566406-.167969 14.511719-9.386719-6.734375-7.09375-18.277344-25.875-25.140625-74.074219-4.367188-30.683593-4.441406-57.703124-4.441406-57.96875-.003906-11.746093-9.515625-21.265624-21.25-21.265624-5.613282 0-10.699219 2.191406-14.5 5.75 5.585937 3.882812 9.253906 10.339843 9.257812 17.664062zm0 0"/><path d="m182.359375 106.539062c-15.210937 0-30.539063 4.050782-39.621094 33.429688-8.015625 25.945312-8.578125 62.4375-9.117187 97.730469-.515625 33.742187-1.007813 65.617187-7.597656 91.222656-7.75 30.101563-22.800782 44.359375-38.257813 50.582031 1.335937.070313 2.683594.113282 4.039063.085938 20.894531-.34375 48.191406-10.035156 59.574218-54.234375 6.519532-25.320313 7.003906-56.839844 7.515625-90.210938.535157-34.898437 1.085938-70.988281 9.015625-96.644531 6.128906-19.820312 15.132813-27.976562 25.011719-31.164062-3.21875-.535157-6.722656-.796876-10.5625-.796876zm0 0"/><path d="m482.519531 8.015625c-4.675781.160156-9.382812.539063-14.105469 1.078125 8.277344 2.757812 14.375 10.4375 14.691407 19.675781.324219 9.363281-3.933594 19.484375-11.789063 22.820313 4.257813-.546875 8.492188-.910156 12.675782-1.054688 11.730468-.40625 20.910156-10.253906 20.503906-21.996094-.40625-11.742187-10.25-20.941406-21.976563-20.523437zm0 0"/><path d="m464.246094 52.667969c-12.277344-1.078125-27.066406-.457031-39.605469 4.777343-22.894531 9.5625-36.699219 23.980469-41.996094 54.5-5.386719 31.074219-1.652343 70.371094 1.957031 108.371094 5.535157 58.238282 7.613282 114.851563-20.023437 145.273438-6.894531 7.589844-15.308594 13.109375-25.140625 16.5625 20.070312-.773438 36.15625-7.667969 47.84375-20.535156 27.328125-30.085938 25.277344-86.070313 19.804688-143.660157-3.574219-37.578125-7.269532-76.4375-1.9375-107.167969 5.234374-30.179687 18.042968-46.800781 41.53125-53.894531 5.890624-1.777343 11.773437-3.179687 17.617187-4.222656-.015625 0-.035156 0-.050781-.003906zm0 0"/></g><path d="m420.160156 21.546875c-27.816406 12.847656-46.09375 36.539063-54.515625 70.664063l40.378907 14.035156c4.84375-23.160156 14.691406-37.683594 31.15625-45.667969zm0 0" fill="#ff6c55"/><path d="m434.453125 54.328125c-3.363281.777344-6.660156 1.800781-9.8125 3.117187-19.429687 8.113282-32.3125 19.734376-39 41.714844l20.382813 7.082032c.660156-3.953126 1.828124-7.8125 3.089843-11.609376 1.234375-3.710937 2.710938-7.347656 4.507813-10.816406 3.242187-6.253906 7.589844-11.972656 13.015625-16.488281 3.214843-2.675781 6.78125-4.925781 10.542969-6.75zm0 0" fill="#ff544d"/><path d="m54.4375 257.289062c-.539062-3.785156-1.011719-7.511718-1.425781-11.140624l-42.425781 3.09375c.484374 4.367187 1.042968 8.882812 1.695312 13.496093 2.839844 20.128907 6.765625 37.71875 11.738281 52.714844l42.671875-6.644531c-4.464844-11.566406-8.914062-28.058594-12.253906-51.519532zm0 0" fill="#ff6c55"/><path d="m26.46875 248.082031c.4375 3.90625.941406 7.921875 1.523438 12.007813 3.445312 24.195312 8.058593 41.046875 12.660156 52.773437l26.039062-4.054687c-6.359375-16.472656-9.769531-34.09375-12.253906-51.519532-.539062-3.785156-1.011719-7.511718-1.425781-11.140624zm0 0" fill="#ff544d"/><path d="m116.347656 237.1875h.121094c4.082031 0 7.425781-3.28125 7.488281-7.382812.617188-39.015626 1.828125-73.597657 10.503907-101.660157 11.84375-38.320312 36.28125-57.746093 72.628906-57.746093 29.367187 0 51.050781 11.597656 64.453125 34.472656 2.097656 3.574218 6.6875 4.769531 10.253906 2.675781 3.570313-2.097656 4.765625-6.691406 2.671875-10.265625-16.054688-27.402344-42.8125-41.882812-77.378906-41.882812-18.300782 0-34.515625 4.425781-48.199219 13.152343-17.929687 11.4375-30.96875 29.996094-38.746094 55.15625-9.257812 29.964844-10.539062 65.671875-11.171875 105.863281-.0625 4.140626 3.238282 7.550782 7.375 7.617188zm0 0"/><path d="m410.191406 260.035156c-4.136718.09375-7.414062 3.527344-7.320312 7.667969.992187 43.664063-5.722656 71.902344-21.132813 88.867187-10.949219 12.050782-26.46875 18.160157-46.132812 18.160157-34.414063 0-56.347657-16.605469-67.050781-50.765625-7.46875-23.832032-7.277344-55.855469-7.09375-86.820313.027343-4.34375.050781-8.65625.054687-12.914062.035156-33.253907.066406-67.644531-7.777344-91.882813-7.800781-24.113281-21.75-34.402344-46.648437-34.402344-16.054688 0-35.832032 4.359376-46.335938 38.339844-8.246094 26.683594-8.808594 63.316406-9.351562 98.746094-.503906 32.914062-.980469 63.996094-7.277344 88.453125-8.191406 31.8125-25.835938 48.167969-52.453125 48.609375-13.277344.257812-25.710937-4.953125-35.933594-15.015625-8.480469-8.347656-15.703125-20.257813-21.636719-35.601563l27.90625-4.347656c4.496094 10.136719 9.082032 16.429688 13.035157 20.320313 6.585937 6.476562 12.386719 7.136719 16.179687 7.101562 9.941406-.167969 20-3.667969 26.25-27.941406 4.257813-16.535156 5.378906-37.90625 5.914063-56.628906.117187-4.144531-3.140625-7.59375-7.277344-7.710938-4.171875-.105469-7.582031 3.140625-7.703125 7.28125-.507812 17.890625-1.554688 38.21875-5.441406 53.3125-4.265625 16.5625-8.367188 16.628907-11.96875 16.691407-1.074219.019531-2.5625.035156-5.449219-2.804688-4.773437-4.695312-16.636719-20.964844-23.691406-70.515625-4-28.09375-4.335938-53.179687-4.363281-56.539063.003906-.121093.007812-.242187.007812-.367187 0-.160156-.003906-.320313-.015625-.476563-.253906-15.648437-13.050781-28.296874-28.742187-28.296874-15.847657 0-28.742188 12.90625-28.742188 28.773437 0 1.226563.0546875 30.378906 4.863281 64.460937 6.980469 49.5 20.5625 84.484376 40.367188 103.980469 13.15625 12.957031 29.300781 19.636719 46.699219 19.324219 14.382812-.238281 27.054687-4.320312 37.667968-12.132812 13.710938-10.085938 23.480469-26.148438 29.035156-47.734376 6.742188-26.183593 7.230469-58.136718 7.75-91.96875.527344-34.367187 1.074219-69.910156 8.6875-94.535156 7.921876-25.632812 20.160157-27.773437 32.019532-27.773437 18.410156 0 26.585937 6.058593 32.394531 24.023437 7.113281 21.976563 7.082031 55.15625 7.050781 87.242188-.003906 4.234375-.03125 8.523437-.058594 12.839844-.191406 32.117187-.386718 65.332031 7.78125 91.402343 12.742188 40.65625 40.109376 61.273438 81.347657 61.273438 24.0625 0 43.316406-7.761719 57.21875-23.066407 18.164062-19.996093 26.117187-51.546874 25.027343-99.300781-.09375-4.140625-3.539062-7.421875-7.660156-7.328125zm-381.449218-74.480468c7.585937 0 13.757812 6.175781 13.761718 13.765624 0 .214844.035156 17.308594 2.238282 39.910157l-27.457032 2.003906c-2.265625-23.464844-2.300781-40.980469-2.300781-41.90625 0-7.59375 6.171875-13.773437 13.757813-13.773437zm-9.785157 70.597656 27.492188-2.007813c.183593 1.394531.371093 2.792969.570312 4.203125 2.640625 18.546875 5.988281 33.070313 9.605469 44.4375l-27.421875 4.269532c-3.921875-13.171876-7.097656-28.304688-9.503906-45.363282-.261719-1.867187-.507813-3.710937-.742188-5.539062zm0 0"/><path d="m511.980469 28.277344c-.261719-7.679688-3.503907-14.800782-9.117188-20.042969-5.617187-5.246094-12.925781-7.984375-20.605469-7.714844-16.488281.570313-33.320312 3.417969-50.019531 8.464844-42.136719 12.722656-67.824219 44.09375-76.351562 93.246094-6.476563 37.339843-2.460938 79.589843 1.425781 120.464843.273438 2.886719.570312 5.871094.875 8.929688 2.15625 21.65625 4.601562 46.199219 2.070312 66.046875-3.449218 27.035156-14.578124 31.78125-22.652343 33-8.78125 1.324219-20.597657-1.414063-27.046875-21.992187-6.601563-21.070313-6.570313-53.269532-6.539063-84.421876.03125-33.460937.066407-68.058593-7.5625-97.195312-1.050781-4.003906-5.136719-6.402344-9.148437-5.351562-4.003906 1.046874-6.398438 5.148437-5.347656 9.15625 7.136718 27.257812 7.105468 60.871093 7.074218 93.386718-.03125 32.273438-.0625 65.648438 7.226563 88.914063 6.550781 20.910156 20.375 32.792969 37.625 32.792969 1.941406 0 3.929687-.152344 5.953125-.457032 19.90625-3.003906 31.777344-18.457031 35.28125-45.933594 2.746094-21.539062.210937-46.984374-2.023438-69.4375-.300781-3.035156-.597656-5.996093-.871094-8.871093-3.789062-39.878907-7.707031-81.109375-1.574218-116.46875.160156-.921875.335937-1.824219.507812-2.730469l26.34375 9.15625c-5.085937 31.417969-1.433594 70.046875 2.121094 107.445312.6875 7.242188 1.242188 13.628907 1.691406 19.539063.316406 4.128906 3.914063 7.226563 8.042969 6.90625 4.128906-.316406 7.214844-3.921875 6.902344-8.050781-.460938-6-1.023438-12.484375-1.722657-19.820313-3.523437-37.082031-7.167968-75.429687-2.007812-105.167969 4.75-27.390624 15.609375-41.746093 36.308594-47.996093 11.960937-3.613281 23.875-5.644531 35.410156-6.046875 7.671875-.265625 14.785156-3.507813 20.023438-9.125 5.238281-5.617188 7.976562-12.945313 7.707031-20.625zm-111.253907 68.1875-26-9.035156c7.65625-25.425782 21.636719-44.007813 41.777344-55.527344l11.101563 25.464844c-12.9375 8.296874-21.722657 21.109374-26.878907 39.097656zm92.589844-57.792969c-2.507812 2.6875-5.910156 4.242187-9.585937 4.367187-12.828125.445313-26.019531 2.691407-39.214844 6.675782-1.160156.351562-2.289063.730468-3.40625 1.125l-11.03125-25.304688c2.109375-.789062 4.273437-1.523437 6.488281-2.191406 15.464844-4.671875 31.011719-7.308594 46.21875-7.835938 5.503906-.191406 10.710938 3.03125 12.996094 8.054688 2.285156 5.019531 1.292969 11.078125-2.464844 15.109375zm0 0"/></svg>